HIERARCHY
ROOT Hips
{
	OFFSET 0.000000 0.000000 0.000000
	CHANNELS 6 Xposition Yposition Zposition Zrotation Yrotation Xrotation 
	JOINT LHipJoint
	{
		OFFSET 0.000000 0.000000 0.000000
		CHANNELS 3 Zrotation Yrotation Xrotation
		JOINT LeftUpLeg
		{
			OFFSET 1.363060 -1.794630 0.839290
			CHANNELS 3 Zrotation Yrotation Xrotation
			JOINT LeftLeg
			{
				OFFSET 2.448110 -6.726130 0.000000
				CHANNELS 3 Zrotation Yrotation Xrotation
				JOINT LeftFoot
				{
					OFFSET 2.562200 -7.039590 0.000000
					CHANNELS 3 Zrotation Yrotation Xrotation
					JOINT LeftToeBase
					{
						OFFSET 0.157640 -0.433110 2.322550
						CHANNELS 3 Zrotation Yrotation Xrotation
						End Site
						{
							OFFSET 0.000000 0.000000 0.000000
						}
					}
				}
			}
		}
	}
	JOINT RHipJoint
	{
		OFFSET 0.000000 0.000000 0.000000
		CHANNELS 3 Zrotation Yrotation Xrotation
		JOINT RightUpLeg
		{
			OFFSET -1.305520 -1.794630 0.839290
			CHANNELS 3 Zrotation Yrotation Xrotation
			JOINT RightLeg
			{
				OFFSET -2.542530 -6.985550 0.000000
				CHANNELS 3 Zrotation Yrotation Xrotation
				JOINT RightFoot
				{
					OFFSET -2.568260 -7.056230 0.000000
					CHANNELS 3 Zrotation Yrotation Xrotation
					JOINT RightToeBase
					{
						OFFSET -0.164730 -0.452590 2.363150
						CHANNELS 3 Zrotation Yrotation Xrotation
						End Site
						{
							OFFSET 0.000000 0.000000 0.000000
						}
					}
				}
			}
		}
	}
	JOINT LowerBack
	{
		OFFSET 0.000000 0.000000 0.000000
		CHANNELS 3 Zrotation Yrotation Xrotation
		JOINT Spine
		{
			OFFSET 0.028270 2.035590 -0.193380
			CHANNELS 3 Zrotation Yrotation Xrotation
			JOINT Spine1
			{
				OFFSET 0.056720 2.048850 -0.042750
				CHANNELS 3 Zrotation Yrotation Xrotation
				JOINT Neck
				{
					OFFSET 0.000000 0.000000 0.000000
					CHANNELS 3 Zrotation Yrotation Xrotation
					JOINT Neck1
					{
						OFFSET -0.054170 1.746240 0.172020
						CHANNELS 3 Zrotation Yrotation Xrotation
						JOINT Head
						{
							OFFSET 0.104070 1.761360 -0.123970
							CHANNELS 3 Zrotation Yrotation Xrotation
							End Site
							{
								OFFSET 0.000000 0.000000 0.000000
							}
						}
					}
				}
				JOINT LeftShoulder
				{
					OFFSET 0.000000 0.000000 0.000000
					CHANNELS 3 Zrotation Yrotation Xrotation
					JOINT LeftArm
					{
						OFFSET 3.362410 1.200890 -0.311210
						CHANNELS 3 Zrotation Yrotation Xrotation
						JOINT LeftForeArm
						{
							OFFSET 4.983000 -0.000000 -0.000000
							CHANNELS 3 Zrotation Yrotation Xrotation
							JOINT LeftHand
							{
								OFFSET 3.483560 -0.000000 -0.000000
								CHANNELS 3 Zrotation Yrotation Xrotation
								JOINT LeftFingerBase
								{
									OFFSET 0.000000 0.000000 0.000000
									CHANNELS 3 Zrotation Yrotation Xrotation
									JOINT LeftHandIndex1
									{
										OFFSET 0.715260 -0.000000 -0.000000
										CHANNELS 3 Zrotation Yrotation Xrotation
										End Site
										{
											OFFSET 0.000000 0.000000 0.000000
										}
									}
								}
								JOINT LThumb
								{
									OFFSET 0.000000 0.000000 0.000000
									CHANNELS 3 Zrotation Yrotation Xrotation
									End Site
									{
										OFFSET 0.000000 0.000000 0.000000
									}
								}
							}
						}
					}
				}
				JOINT RightShoulder
				{
					OFFSET 0.000000 0.000000 0.000000
					CHANNELS 3 Zrotation Yrotation Xrotation
					JOINT RightArm
					{
						OFFSET -3.136600 1.374050 -0.404650
						CHANNELS 3 Zrotation Yrotation Xrotation
						JOINT RightForeArm
						{
							OFFSET -5.241900 -0.000000 -0.000000
							CHANNELS 3 Zrotation Yrotation Xrotation
							JOINT RightHand
							{
								OFFSET -3.444170 -0.000000 -0.000000
								CHANNELS 3 Zrotation Yrotation Xrotation
								JOINT RightFingerBase
								{
									OFFSET 0.000000 0.000000 0.000000
									CHANNELS 3 Zrotation Yrotation Xrotation
									JOINT RightHandIndex1
									{
										OFFSET -0.622530 -0.000000 -0.000000
										CHANNELS 3 Zrotation Yrotation Xrotation
										End Site
										{
											OFFSET 0.000000 0.000000 0.000000
										}
									}
								}
								JOINT RThumb
								{
									OFFSET 0.000000 0.000000 0.000000
									CHANNELS 3 Zrotation Yrotation Xrotation
									End Site
									{
										OFFSET 0.000000 0.000000 0.000000
									}
								}
							}
						}
					}
				}
			}
		}
	}
}
MOTION
Frames: 10
Frame Time: 0.008333
0.476713 17.619714 -0.062357 4.746606 -8.888528 3.503697 5.481299 5.055551 0.581424 -30.743798 -4.627118 3.003414 -0.893628 0.148362 5.720687 -3.003475 18.505957 -14.063079 0.394500 -4.033000 -11.169600 -8.034937 -5.197493 -0.191121 21.109680 9.517560 -7.199832 -2.179859 -6.258334 21.916781 0.900854 -12.666449 -15.317942 -0.500500 4.535300 -12.587700 -0.020376 2.655864 5.922116 0.649402 3.583540 1.464930 -0.393979 1.852758 5.186080 -6.489866 -6.125623 -10.619544 4.462373 -8.223862 19.412829 1.512900 -3.916400 8.465200 2.103719 -3.627381 2.218992 -75.072217 27.137689 61.593898 64.232562 -56.289064 -36.496963 -1.635495 1.183529 -70.960307 23.297959 44.927406 15.953200 -7.125000 0.000000 0.000000 -25.965300 74.003700 -18.104500 -1.970468 3.932272 2.743720 80.839323 -28.058323 49.636883 -64.613261 56.727051 -32.746680 1.324441 -1.426167 -91.493506 -31.653304 -0.438577 -0.642900 7.125000 0.000000 0.000000 -2.826800 -28.697100 -1.123500 
0.458355 17.621074 -0.067991 4.621931 -9.045058 3.491270 5.478427 5.055863 0.578897 -30.544419 -4.526318 2.839296 -0.873305 0.244222 5.968248 -2.997544 18.492134 -14.099708 0.409000 -4.105700 -11.374300 -8.049394 -5.196073 -0.189318 21.345358 9.677466 -7.092937 -2.169196 -6.227332 21.837550 0.986113 -12.979395 -14.904555 -0.663200 5.208300 -14.503700 0.080004 2.666464 5.980587 0.660215 3.601186 1.496478 -0.432757 1.863881 5.220628 -6.404574 -6.106136 -10.655321 4.419062 -8.198728 19.394837 1.480500 -3.900600 8.454000 2.105389 -3.629025 2.222996 -74.887609 26.895040 61.476396 64.254333 -56.285931 -36.492439 -1.606093 1.217858 -70.548414 23.880321 44.573057 16.267900 -7.125000 0.000000 0.000000 -24.536600 73.925200 -17.037500 -1.970169 3.938119 2.747823 81.002439 -27.931078 49.444774 -64.285687 56.669573 -32.476374 1.315131 -1.429353 -91.065157 -31.304194 -0.496019 -0.598100 7.125000 0.000000 0.000000 -2.562900 -28.774700 -1.013700 
0.441746 17.623211 -0.073139 4.593285 -9.193757 3.556250 5.476980 5.057213 0.572087 -30.456814 -4.416334 2.733381 -0.872200 0.247022 5.968020 -2.997252 18.487385 -14.090413 0.417300 -4.146500 -11.489200 -8.053365 -5.194346 -0.172298 21.431926 9.819078 -7.163350 -2.164702 -6.226137 21.825374 0.907700 -12.642333 -15.214267 -0.481800 4.451300 -12.349900 0.129535 2.664931 5.953116 0.632380 3.600662 1.500948 -0.525955 1.867383 5.251877 -6.271957 -6.076710 -10.665294 4.377243 -8.169394 19.381950 1.441600 -3.879200 8.436700 2.105755 -3.626963 2.226703 -74.705860 26.737295 61.270411 64.271207 -56.283970 -36.488691 -1.593299 1.240341 -70.102624 24.104965 44.566018 16.425500 -7.125000 0.000000 0.000000 -24.247600 73.999900 -16.869100 -1.975164 3.942126 2.752180 81.233290 -27.809178 49.244644 -64.009100 56.628319 -32.260875 1.309689 -1.439412 -90.616587 -31.283608 -0.574374 -0.555800 7.125000 0.000000 0.000000 -2.549700 -28.858900 -1.003300 
0.425040 17.624765 -0.077704 4.563239 -9.307834 3.645386 5.473385 5.057593 0.568958 -30.359714 -4.367129 2.583492 -0.868396 0.268096 6.012547 -2.989737 18.466373 -14.120432 0.427300 -4.195000 -11.626000 -8.057238 -5.196429 -0.156539 21.509040 9.872194 -7.300572 -2.161373 -6.228176 21.819044 0.824075 -12.265617 -15.499887 -0.326200 3.670700 -10.152000 0.144699 2.641643 5.902862 0.628701 3.569170 1.494104 -0.555100 1.852505 5.264433 -6.154037 -6.043832 -10.611893 4.287516 -8.125413 19.315998 1.387700 -3.857700 8.378500 2.109165 -3.624332 2.231977 -74.632351 26.598095 60.972765 64.241277 -56.273231 -36.449991 -1.589043 1.261335 -69.578797 24.189817 44.801966 16.553200 -7.125000 0.000000 0.000000 -24.626100 74.223500 -17.255700 -1.976812 3.943737 2.755524 81.380993 -27.712096 49.064601 -63.700472 56.573072 -32.019929 1.296928 -1.453123 -90.202711 -31.183543 -0.469387 -0.612000 7.125000 0.000000 0.000000 -2.464900 -28.742400 -0.976700 
0.407265 17.626319 -0.082075 4.565898 -9.448136 3.681915 5.469329 5.058649 0.569414 -30.299860 -4.292762 2.430268 -0.858055 0.324144 6.155739 -2.968110 18.417789 -14.242826 0.431300 -4.214400 -11.680500 -8.063272 -5.199378 -0.150154 21.563728 9.869291 -7.397985 -2.159974 -6.226472 21.806571 0.817663 -12.170871 -15.386797 -0.326100 3.670300 -10.151000 0.078116 2.633729 5.892607 0.648805 3.556903 1.487412 -0.487008 1.841296 5.239839 -6.116574 -6.020112 -10.477197 4.175183 -8.082584 19.257922 1.340200 -3.846200 8.309800 2.115963 -3.627646 2.234979 -74.594660 26.388637 60.774850 63.982596 -56.213420 -36.216283 -1.577530 1.279945 -68.990734 24.182857 44.858771 16.563100 -7.125000 0.000000 0.000000 -24.756600 74.267100 -17.372400 -1.974098 3.945177 2.759355 81.456918 -27.711413 48.890060 -63.482201 56.527531 -31.849525 1.283340 -1.464833 -89.767575 -31.062317 -0.364917 -0.666400 7.125000 0.000000 0.000000 -2.365600 -28.627900 -0.943700 
0.388713 17.627873 -0.089845 4.501411 -9.623251 3.706293 5.466419 5.057483 0.569742 -30.166318 -4.206709 2.208387 -0.838291 0.426443 6.422991 -2.914381 18.264953 -14.450809 0.406400 -4.092400 -11.336700 -8.072856 -5.199224 -0.139503 21.714902 9.977735 -7.432442 -2.154329 -6.215525 21.772916 0.821690 -12.148577 -15.301665 -0.321700 3.645700 -10.082100 0.115788 2.649529 5.956647 0.649888 3.578492 1.474008 -0.512904 1.854510 5.177731 -6.059705 -5.967948 -10.382344 4.112647 -8.012949 19.271450 1.311000 -3.814900 8.284400 2.121260 -3.629597 2.236880 -74.507285 26.192818 60.518800 63.756377 -56.157562 -36.007983 -1.568202 1.298903 -68.286178 24.087062 45.023673 16.540100 -7.125000 0.000000 0.000000 -25.224400 74.366100 -17.762800 -1.975090 3.951436 2.765002 81.644851 -27.730292 48.650112 -63.298165 56.494838 -31.708126 1.284152 -1.468817 -89.366352 -31.091920 -0.589341 -0.545400 7.125000 0.000000 0.000000 -2.400100 -28.873600 -0.943500 
0.371035 17.629718 -0.099752 4.275564 -9.783102 3.774536 5.459194 5.058490 0.566977 -29.845456 -4.122077 2.000378 -0.824499 0.490897 6.580975 -2.884027 18.167123 -14.545968 0.382000 -3.969300 -10.990400 -8.088366 -5.205179 -0.121792 22.049365 10.086383 -7.493985 -2.149209 -6.209038 21.756625 0.824593 -12.103142 -15.199521 -0.325300 3.666100 -10.139200 0.365263 2.643375 6.062583 0.661692 3.574538 1.460885 -0.637631 1.865569 5.111418 -5.950576 -5.918738 -10.314216 4.023817 -7.945504 19.202109 1.262800 -3.783600 8.225000 2.126508 -3.627929 2.242906 -74.439075 26.002760 60.158284 63.731195 -56.143119 -35.967703 -1.552263 1.333162 -67.542551 24.340439 45.185571 16.767400 -7.125000 0.000000 0.000000 -25.264800 74.589600 -17.909900 -1.976681 3.959250 2.771243 81.873389 -27.656653 48.386641 -63.002450 56.444115 -31.484636 1.292478 -1.471047 -88.990500 -31.237437 -1.001202 -0.322900 7.125000 0.000000 0.000000 -2.532200 -29.325800 -0.968400 
0.354329 17.631564 -0.104997 4.114460 -9.906015 3.854490 5.452121 5.060247 0.564260 -29.602250 -4.053646 1.849828 -0.816089 0.526051 6.659777 -2.887339 18.168095 -14.516290 0.387900 -3.999400 -11.074900 -8.099896 -5.211995 -0.107660 22.294678 10.125743 -7.580715 -2.146626 -6.207973 21.753201 0.805870 -11.962439 -15.167385 -0.317200 3.620300 -10.010900 0.532326 2.608572 6.092958 0.683092 3.530508 1.454914 -0.690812 1.850754 5.096012 -5.946264 -5.886976 -10.290337 3.991202 -7.895848 19.149293 1.253900 -3.764200 8.191800 2.129737 -3.629988 2.248521 -74.432832 25.777426 59.848840 63.647803 -56.116345 -35.878693 -1.526781 1.367133 -66.896777 24.698920 45.091019 16.996900 -7.125000 0.000000 0.000000 -24.626800 74.644600 -17.472800 -1.978424 3.962297 2.773637 81.991292 -27.574223 48.180523 -62.728819 56.390890 -31.273531 1.290985 -1.475814 -88.711072 -31.213288 -1.132505 -0.249900 7.125000 0.000000 0.000000 -2.518800 -29.472200 -0.954400 
0.336651 17.633021 -0.106066 4.146566 -10.082288 3.896971 5.449023 5.061716 0.561275 -29.581533 -3.926088 1.726409 -0.808895 0.561737 6.751672 -2.867809 18.115751 -14.597341 0.373200 -3.924000 -10.862800 -8.105123 -5.211626 -0.099818 22.315174 10.182347 -7.652177 -2.145656 -6.207165 21.742687 0.780851 -11.783747 -15.119812 -0.311000 3.584900 -9.911800 0.453005 2.582529 6.045354 0.688013 3.494625 1.467258 -0.648472 1.826997 5.138854 -5.906181 -5.804187 -10.276222 3.918919 -7.773213 19.126543 1.223600 -3.709000 8.161900 2.134465 -3.631707 2.254321 -74.433301 25.547811 59.527182 63.436898 -56.065271 -35.682575 -1.501978 1.378247 -66.363668 24.635669 44.807725 16.867100 -7.125000 0.000000 0.000000 -24.120200 74.391500 -16.976000 -1.977510 3.962553 2.774352 82.083804 -27.481929 47.971996 -62.476617 56.337687 -31.075257 1.283717 -1.480348 -88.442155 -31.048907 -1.140059 -0.242100 7.125000 0.000000 0.000000 -2.391500 -29.486100 -0.905300 
0.320042 17.633992 -0.109854 4.243517 -10.244299 3.910751 5.447538 5.067061 0.556438 -29.637251 -3.780504 1.683124 -0.811313 0.546804 6.708200 -2.893618 18.206629 -14.544529 0.404000 -4.080700 -11.303900 -8.106947 -5.211881 -0.095052 22.259284 10.182817 -7.757709 -2.148528 -6.215456 21.753849 0.771460 -11.682720 -15.020214 -0.322800 3.652100 -10.099800 0.325128 2.545985 6.037564 0.681977 3.446606 1.495756 -0.615114 1.794941 5.195605 -5.770689 -5.701738 -10.327137 3.782128 -7.620960 19.094319 1.148000 -3.635400 8.130500 2.139459 -3.630745 2.263079 -74.492137 25.284516 59.102499 63.252331 -56.018463 -35.507361 -1.473754 1.394276 -65.762259 24.652025 44.527860 16.795200 -7.125000 0.000000 0.000000 -23.540800 74.168800 -16.447300 -1.974770 3.966276 2.774092 82.157346 -27.328599 47.806406 -62.215923 56.281642 -30.871808 1.273096 -1.487403 -88.202041 -30.883991 -1.048688 -0.288400 7.125000 0.000000 0.000000 -2.258200 -29.389800 -0.860000 
